<svg version="1.0" xmlns="http://www.w3.org/2000/svg" width="464" height="464" viewBox="0 0 348 348"><path d="M4 174.5V344h339V5H4v169.5zm337 0V342H6V7h335v167.5z"/><path d="M18 73v54l65.3-.2 65.2-.3.3-53.8.2-53.7H18v54zm128.8-.3-.3 51.8-63.2.3-63.3.2V21h127l-.2 51.7z"/><path d="M48.6 35.4c-8.2 3.1-12.5 10.4-14.5 25-3 21.2.7 42.7 8.4 49.5 8.9 7.8 22.5 5.7 28.2-4.4 3.2-5.6 4.4-10.6 5.3-21.5 1.4-18.3-1.5-36.3-7.1-43.4-4.2-5.4-13.4-7.7-20.3-5.2zm11.9 9.2c4.8 3.2 6 9 6 29.9 0 15.9-.3 19.8-1.8 23.7-2.1 5.3-5.2 7.8-9.9 7.8-7.5 0-10.6-5.5-11.8-20.8-1-12.1.2-30.1 2.4-35.4.9-2 2.6-4.4 3.8-5.2 2.9-2 8.2-2 11.3 0zM99.7 35.4c-4.9 1.8-8.3 5-10.9 10-6.3 12.2-6.2 46 0 58.3 7.1 13.7 25.2 14.8 32.7 1.8 3.7-6.3 5.5-16.1 5.5-31 0-26.4-5.6-38.2-19-39.9-2.8-.4-6-.1-8.3.8zm11.6 9.6c5 3.9 6.2 9.7 6.2 29 0 20-1.1 25.6-5.7 29.5-3.6 3.1-8.6 3.3-12.1.5-4.8-3.8-6.2-10.5-6.1-29.5 0-19 1.4-25.8 6.1-29.5 3.3-2.6 8.3-2.6 11.6 0zM294.5 25c-4.6 1-7.9 3.5-10.3 7.9-5.6 9.8.4 21.5 11.9 23.6 7.2 1.3 16.8-5.3 18.4-12.6 2.5-11.1-8.5-21.5-20-18.9zm11.4 3.9c9.5 6.7 9 18.7-1 23.9-9.7 5.1-20.9-1.4-20.9-12.1 0-6.7 3.1-10.9 9.7-13.2 4.4-1.5 8.8-1 12.2 1.4zM177 85v15.1l12.3-.3 12.2-.3.3-14.8.3-14.7H177v15zm22.8-.3-.3 12.8-10.2.3-10.3.3V72h21.1l-.3 12.7zM214.2 84.7l.3 14.8h25l.3-14.8.3-14.7h-26.2l.3 14.7zm23.6 0-.3 12.8-10.7.3-10.8.3V72h22.1l-.3 12.7zM179 125v14.1l10.3-.3 10.2-.3v-27l-10.2-.3-10.3-.3V125zm18.8-.3-.3 11.8-8.2.3-8.3.3V113h17.1l-.3 11.7zM215.2 128.7l.3 15.8h22l.3-15.8.3-15.7h-23.2l.3 15.7zm20.6 0-.3 13.8-9.2.3-9.3.3V115h19.1l-.3 13.7zM254 131.5v16.6l14.8-.3 14.7-.3.3-16.3.2-16.2h-30v16.5zm27.8-.3-.3 14.3-12.7.3-12.8.3V117h26.1l-.3 14.2zM298 133.5v16.6l14.8-.3 14.7-.3.3-16.3.2-16.2h-30v16.5zm27.8-.3-.3 14.3-12.7.3-12.8.3V119h26.1l-.3 14.2zM18 192v52l62.3-.2 62.2-.3v-103l-62.2-.3L18 140v52zm122.8-.3-.3 49.8-60.2.3-60.3.2V142h121l-.2 49.7z"/><path d="M64.1 155.5c-10.2 2.9-15.5 7.6-18.9 16.8-5.8 15.4-2.7 37.2 6.5 45.9 1.5 1.5 5.1 3.7 7.8 5 4.4 2 6.6 2.3 17.5 2.3 14.7 0 19.9-1.5 26.7-7.7 5.4-5 8.2-12.5 9-23.4 1.4-19.5-5.4-33.2-18.6-38-6.5-2.3-23.1-2.8-30-.9zm25.6 9.1c1.5 1.1 3.9 4.2 5.3 7 2.3 4.5 2.5 6 2.5 18.4 0 12.4-.2 13.9-2.5 18.5-4 8-11.5 11.4-21.7 9.9-6.1-.9-10.4-4.1-13.3-9.9-2.2-4.5-2.4-6.2-2.4-17.5 0-17.6 2.2-23.6 9.6-27.4 4.8-2.4 18.6-1.9 22.5 1zM215 180.3v17.8l11.8-.3 11.7-.3.3-16.8c.2-12.9 0-16.8-1-17.2-.7-.2-6.1-.5-12.1-.7l-10.7-.3v17.8zm21.8-.1-.3 15.3-9.7.3-9.8.3V165h20.1l-.3 15.2zM178.2 180.7l.3 17.8h27v-35l-13.8-.3-13.7-.3.2 17.8zm25.6 0-.3 15.8-11.7.3-11.8.3V165h24.1l-.3 15.7zM257 183v16.1l9.8-.3 9.7-.3.3-15.8.3-15.7H257v16zm17.8-.3-.3 13.8-7.7.3-7.8.3V169h16.1l-.3 13.7zM297.2 188.2l.3 15.3h26l.3-15.3.3-15.2h-27.2l.3 15.2zm24.6 0-.3 13.3-11.2.3-11.3.3V175h23.1l-.3 13.2zM258 233.5v17.6l13.8-.3 13.7-.3v-34l-13.7-.3-13.8-.3v17.6zm25.8-.3-.3 15.3-11.7.3-11.8.3V218h24.1l-.3 15.2zM173 234.5v17.6l13.8-.3 13.7-.3v-34l-13.7-.3-13.8-.3v17.6zm25.8-.3-.3 15.3-11.7.3-11.8.3V219h24.1l-.3 15.2zM217.4 217.9c-.2.2-.4 7.8-.4 16.8v16.4l11.8-.3 11.7-.3v-32l-11.3-.5c-6.3-.3-11.6-.3-11.8-.1zm21.4 16.3-.3 14.3-9.7.3-9.8.3V220h20.1l-.3 14.2zM298 236.5v17.6l12.8-.3 12.7-.3.3-17.3.2-17.2h-26v17.5zm23.8-.3-.3 15.3-10.7.3-10.8.3V221h22.1l-.3 15.2zM17 292v44l61.3-.2 61.2-.3.3-43.8.2-43.7H17v44zm120.8-.3-.3 41.8-59.2.3-59.3.2v-84h119l-.2 41.7z"/><path d="M50.9 265.3c-7.2 4.7-10.3 17.4-8.8 36.1 1.1 14.4 6.1 21.5 15.6 22.3 12.1 1.1 18.3-9.2 18.3-30.2 0-10-1.7-18.6-4.6-23.6-3.9-6.7-14-9-20.5-4.6zm13 6c5.8 4.8 6.7 35.4 1.3 42.6-2.1 2.9-7.7 4-11.1 2.1-3.2-1.7-5.1-9.9-5.1-22.5 0-13.6 1.8-20.8 5.8-23 2.8-1.5 6.7-1.2 9.1.8zM92.3 264.6c-1.8.9-4.2 3.1-5.3 5-6.9 11.1-6.1 41.1 1.4 49.2 6.3 6.9 15.9 6.9 22.2 0 7.2-7.7 8.4-35.1 2.1-47.6-3.7-7.5-12.7-10.4-20.4-6.6zm12.9 7.5c3.1 3.6 4 9.7 3.6 23.8-.2 11.5-.6 14.1-2.4 17.1-1.9 3.3-2.4 3.5-7 3.5-4.8 0-4.9-.1-7.2-4.5-2.1-4.2-2.3-5.5-2-19.5.3-16.3 1.3-19.9 5.8-22.2 3.1-1.6 7-.9 9.2 1.8zM236.5 261.1c-4.5 1.2-11.5 7.7-13.6 12.3-3.8 8.3-1.7 19.6 4.7 26 10.1 9.9 27.6 9.4 36.4-1.2 12.9-15.6 1.8-38.3-18.5-38.1-3.3 0-7.4.5-9 1zm18 2.8c4.3 1.9 10 7.8 11.6 11.8 1.7 4.5 1.1 12.7-1.4 17.2-3.4 6.6-9.4 10.4-17.1 10.9-7.7.5-12.6-.9-17.3-5.1-9.7-8.6-9.6-23.4.3-31.5 2.2-1.8 5.3-3.7 6.9-4.1 5.1-1.5 12.8-1.2 17 .8zM224 318c0 2.7-.3 3-3.3 3-4.6 0-7 2.8-7 8.2 0 4.9 3.2 8.3 6.7 7.2 1.2-.4 2.9-.7 3.9-.6 1.5.1 1.7-1 1.7-10.4 0-6.3-.4-10.4-1-10.4-.5 0-1 1.3-1 3zm-.5 9.9c0 3.1-.5 4.7-1.7 5.5-3.9 2.4-7.4-3.6-4.8-8.4.8-1.5 1.9-2 3.8-1.8 2.5.3 2.7.7 2.7 4.7zM183 326c0 8.2.3 10 1.5 10 1.1 0 1.5-1.1 1.5-4 0-5.2 1.7-5.2 5.6 0 1.6 2.2 3.7 4 4.7 4 1.6 0 1.4-.6-1.3-4-3.1-3.9-3.2-4.2-1.5-6 2.3-2.5 2.2-7-.1-8.7-1-.7-3.7-1.3-6.1-1.3H183v10zm8.4-6.4c1.9 1.8 1.9 2 .6 4.5-.6 1.1-2.1 1.9-3.5 1.9-2.2 0-2.5-.4-2.5-4 0-3.3.3-4 1.9-4 1.1 0 2.7.7 3.5 1.6zM230 317.6c0 1.7 2.2 1.4 2.8-.4.2-.7-.3-1.2-1.2-1.2-.9 0-1.6.7-1.6 1.6zM302.9 317.6c-.7.9-1.5 4.5-1.7 7.9-.4 5.8-.2 6.6 2.1 8.9 3.1 3.1 4.7 3.2 7.6.8 3-2.4 3.9-10.4 1.8-15.5-1.4-3.2-2-3.7-5-3.7-2 0-4 .7-4.8 1.6zm7.1 2.3c1.1 2.2 1.3 8.3.4 11.9-.5 1.8-1.3 2.2-3.3 2-2.4-.3-2.6-.7-2.9-5.7-.2-3-.1-6.5.3-7.8.7-2.8 4-3.1 5.5-.4zM200 322.4c0 .9 1.2 1.3 3.6 1.2 5.2-.1 5.3 1.9.2 3.5-3.5 1.1-4.4 1.9-4.6 4.1-.4 3.3 3.7 6.5 6.4 5 .9-.5 2.5-.7 3.5-.5 1.7.5 1.9-.1 1.9-5.9 0-3.6-.5-6.9-1.2-7.6-1.7-1.7-9.8-1.6-9.8.2zm7.8 8.3c-.2 2.2-.9 2.9-3 3.1-2.3.3-2.8-.1-2.8-1.8 0-1.2.9-2.4 2.3-3 3.5-1.4 3.9-1.2 3.5 1.7zM230 328.5c0 4.3.4 7.5 1 7.5s1-3.2 1-7.5-.4-7.5-1-7.5-1 3.2-1 7.5zM236 327.5c0 5.7.3 6.6 2.4 8.1 1.8 1.1 3 1.3 4.2.6.9-.5 2.5-.7 3.5-.5 1.7.5 1.9-.2 1.9-7.1 0-6-.3-7.6-1.5-7.6-1 0-1.5 1.6-1.7 6.2-.3 6-.4 6.3-2.8 6.3s-2.5-.3-2.8-6.3c-.2-4.6-.7-6.2-1.7-6.2-1.2 0-1.5 1.5-1.5 6.5zM252.1 322.4c-2.3 2.7-.9 6 2.9 7.2 1.9.6 3.7 1.9 3.8 2.9.3 1.5-.2 1.7-3.7 1.3-2.7-.2-4.1.1-4.1.8 0 1.7 4.4 2.6 7.3 1.5 5-1.9 4.2-6.7-1.5-8.7-4.7-1.5-4.4-3.9.5-3.8 4.8.2 4.4-2-.5-2.4-2.2-.2-3.9.3-4.7 1.2zM273.7 323.6c-1.6 1.6.9 2.4 7.4 2.4 5.5 0 6.9-.3 6.9-1.5s-1.4-1.5-6.8-1.5c-3.8 0-7.2.3-7.5.6zM273.5 330c-.4.6 2.2 1 6.9 1 4.4 0 7.6-.4 7.6-1s-3-1-6.9-1c-3.9 0-7.3.4-7.6 1z"/></svg>